<svg display="none" xmlns="http://www.w3.org/2000/svg">
<!-- <symbol id="right-arrow" viewBox="0 0 144 448">
<path d="M144 224c0 4.25-1.75 8.25-4.75 11.25l-112 112c-3 3-7 4.75-11.25 4.75-8.75 0-16-7.25-16-16v-224.001c0-8.75 7.25-16 16-16 4.25 0 8.25 1.75 11.25 4.75l112 112c3 3 4.75 7 4.75 11.25z"></path>
</symbol> -->
<symbol id="play" viewBox="0 0 354 448">
<path d="M347.916 231.793l-333.839 185.522c-7.793 4.274-14.077 0.503-14.077-8.295v-370.039c0-8.799 6.285-12.569 14.077-8.295l333.839 185.522c7.793 4.273 7.793 11.312 0 15.586z"></path>
</symbol>
</svg>